<svg xmlns="http://www.w3.org/2000/svg" version="1.1" xmlns:xlink="http://www.w3.org/1999/xlink" xmlns:svgjs="http://svgjs.dev/svgjs" width="100%" height="100%" viewBox="0 0 1000 600"><rect width="1000" height="600" x="0" y="0" fill="#141a46"/><g><rect width="333.3333333333333" height="333.3333333333333" rx="13.333333333333334" ry="13.333333333333334" y="207.60457587296267" fill="#ec8b5e" transform="matrix(0.6742821183652653,0,0,0.6742821183652653,0,47.6356009814522)" x="185.38235473632812"/><path d="M413.36947433538785 441.33618912825995L424.1844255180141 441.55064991658395L424.1844255180141 449.27123829624924L371.02878726912854 449.27123829624924L341.0349141592386 390.1413352297655L341.6782965242107 389.71241365311744Q336.62314937085847 390.1413352297655 327.34006096197527 390.6008940618884L327.34006096197527 390.6008940618884L327.34006096197527 441.33618912825995L338.1550121446015 441.55064991658395L338.1550121446015 449.27123829624924L279.91358948688884 449.27123829624924L279.91358948688884 441.55064991658395L290.72854066951516 441.33618912825995L290.72854066951516 309.41216705350405L279.91358948688884 309.19770626518005L279.91358948688884 301.47711788551476L322.49937459694706 301.9060394621629L355.373149721474 299.2712354913247Q371.24324805745255 299.2712354913247 382.60966983862636 305.1229512870234Q393.9760916198002 310.974667082722 399.79717016002394 320.77858883467786Q405.6488859557227 330.5825105866337 405.6488859557227 342.50040296635507L405.6488859557227 342.50040296635507Q405.6488859557227 356.19525616361835 397.7138367877334 366.33618772579774Q389.7787876197441 376.477119287977 373.8780520282907 382.6658448938992L373.8780520282907 382.6658448938992L413.36947433538785 441.33618912825995ZM327.34006096197527 309.19770626518005L327.34006096197527 381.9918252734522Q345.66113973594275 380.8888840763572 356.0165320864461 371.9428054776975Q366.40256169242434 363.0273641345126 366.40256169242434 347.8006481635062L366.40256169242434 347.8006481635062Q366.40256169242434 336.9856969808799 361.3167772835973 328.1621674041196Q356.23099287477015 319.3386378273594 347.4074632980099 314.2834906740071Q338.58393372124965 309.19770626518005 327.34006096197527 309.19770626518005L327.34006096197527 309.19770626518005Z " fill="#141a46" transform="matrix(0.6742821183652653,0,0,0.6742821183652653,0,47.6356009814522)"/><path d="M732.6245484292552 438.27003396798585L743.2060830078386 438.47986609843935L743.2060830078386 446.0338227947652L691.1976906740078 446.0338227947652L661.8511684291545 388.1801068268727L662.4806648205151 387.7604425659657Q657.5346217455398 388.1801068268727 648.4518880987671 388.6297471064159L648.4518880987671 388.6297471064159L648.4518880987671 438.27003396798585L659.0334226773505 438.47986609843935L659.0334226773505 446.0338227947652L602.0490112499082 446.0338227947652L602.0490112499082 438.47986609843935L612.6305458284917 438.27003396798585L612.6305458284917 309.19329772044955L602.0490112499082 308.983465589996L602.0490112499082 301.4295088936701L643.7156771542452 301.84917315457716L675.8799451509026 299.2712355518628Q691.4075228044613 299.2712355518628 702.5286257184966 304.9966551113796Q713.649728632532 310.7220746708964 719.3451721734125 320.31440063448485Q725.0705917329293 329.9067265980732 725.0705917329293 341.56739784756036L725.0705917329293 341.56739784756036Q725.0705917329293 354.96667817794787 717.30680290615 364.88874034653463Q709.5430140793707 374.81080251512134 693.9854604071757 380.8659582796366L693.9854604071757 380.8659582796366L732.6245484292552 438.27003396798585ZM648.4518880987671 308.983465589996L648.4518880987671 380.20648586963983Q666.3775472432228 379.12734919873617 676.5094415422631 370.37435175696174Q686.6713118599396 361.6513303338235 686.6713118599396 346.75324907162536L686.6713118599396 346.75324907162536Q686.6713118599396 336.17171449304186 681.6952927663281 327.5386211258123Q676.7192736727166 318.90552775858276 668.086180305487 313.95948468360746Q659.4530869382575 308.983465589996 648.4518880987671 308.983465589996L648.4518880987671 308.983465589996ZM798.2420532239271 345.67411240072164Q817.2468490392865 345.67411240072164 828.1281438042322 359.3731529174713Q839.039414587814 373.072193434221 838.8295824573605 396.39353593319527L838.8295824573605 396.39353593319527L779.2372574085675 398.34197714454916Q780.7660343590145 411.08178506494 788.1101589248868 417.76643722081565Q795.4243074721229 424.4510893766913 807.5346190011534 424.4510893766913L807.5346190011534 424.4510893766913Q824.3511654560692 424.4510893766913 834.9327000346527 415.15852359946507L834.9327000346527 415.15852359946507L838.8295824573605 418.6357417612659Q831.2756257610346 433.08418274392085 818.4159137660989 441.1777077756986Q805.5861777897994 449.2712328074763 791.1077607885082 449.2712328074763L791.1077607885082 449.2712328074763Q771.4734685817882 449.2712328074763 759.9327014068459 436.2016886820871Q748.3919342319036 423.16212057533414 748.3919342319036 400.91991474726353L748.3919342319036 400.91991474726353Q748.3919342319036 387.7604425659657 753.6677135118772 374.81080251512134Q758.9734688104871 361.8611624642771 767.1569218981734 353.22806909704747L767.1569218981734 353.22806909704747Q772.7624373831454 349.9906590843364 781.6353388994647 347.832385742529Q790.4782643971477 345.67411240072164 798.2420532239271 345.67411240072164L798.2420532239271 345.67411240072164ZM778.8175931476605 391.6573249886735L806.8751465911566 389.25924349777637Q806.6653144607031 374.15133010512466 802.5585999075419 365.3084046074416Q798.4518853543806 356.4654791097586 790.8979286580546 354.7268700288582L790.8979286580546 354.7268700288582Q785.5022453035363 360.36236153246637 782.1749072349165 370.37435175696174Q778.8175931476605 380.4163180000933 778.8175931476605 390.9978525786768L778.8175931476605 390.9978525786768L778.8175931476605 391.6573249886735ZM877.6785026098935 365.0985724769881Q877.6785026098935 370.9139200924136 882.2948094798704 375.68010705557157Q886.9410923684835 380.4163180000933 896.4434902761633 386.89113802551554L896.4434902761633 386.89113802551554Q908.1041615256504 394.89473500138456 914.1293412715294 401.3695550268067Q920.1844970360445 407.84437505222894 920.1844970360445 417.31679694127246L920.1844970360445 417.31679694127246Q920.1844970360445 425.7400581780485 915.2084779424331 433.08418274392085Q910.2624348674578 440.42830730979324 901.1797012206849 444.83478204931663Q892.1269435925484 449.2712328074763 880.4662723430614 449.2712328074763L880.4662723430614 449.2712328074763Q869.2552413731174 449.2712328074763 859.2132751299858 443.87554945295784Q849.1713088868543 438.47986609843935 844.4350979423324 430.0566048616633L844.4350979423324 430.0566048616633L862.9902534781487 415.15852359946507Q871.6233468453783 431.3455736630205 880.6761044735149 441.7172761111504L880.6761044735149 441.7172761111504Q884.3631547657691 438.89953035934633 886.851164312575 435.1225520111834Q889.3091978407444 431.3455736630205 889.3091978407444 427.6884993894024L889.3091978407444 427.6884993894024Q889.3091978407444 421.63334362488723 884.902723101221 417.2268688853638Q880.4662723430614 412.7904181272042 871.2036825844713 406.5254302322355L871.2036825844713 406.5254302322355Q863.6497258881454 401.5793871572602 859.093371055441 397.892336865006Q854.5669922413726 394.2352625913879 851.4494863032065 389.0494113673229Q848.302004346404 383.8635601432579 848.302004346404 377.38874011783577L848.302004346404 377.38874011783577Q848.302004346404 369.4151191606029 853.6077596450139 362.0709945947305Q858.8835389249874 354.7268700288582 868.3859368326672 350.2004912147899Q877.888334740347 345.67411240072164 889.9686702507412 345.67411240072164L889.9686702507412 345.67411240072164Q899.2612360279674 345.67411240072164 907.5645931901986 349.66092287933805Q915.8679503524298 353.64773335795445 921.0538015764947 359.7028891224697L921.0538015764947 359.7028891224697L904.2072791029426 376.30960344693204Q893.8655526734489 363.15013126563423 881.3355768835116 352.8084048361405L881.3355768835116 352.8084048361405Q877.6785026098935 357.54461578066224 877.6785026098935 365.0985724769881L877.6785026098935 365.0985724769881ZM870.7540423049281 446.0338227947652L870.5442101744746 446.0338227947652L870.7540423049281 446.0338227947652ZM1035.65212082274 425.11056178668804L1038.0202262950006 431.5853818121102L1008.0142316401508 448.6117603974796Q1001.1197473538217 444.9546861238615 997.8823373411105 438.5997701729842Q994.6449273283995 432.2148782034707 994.6449273283995 422.2928160348839L994.6449273283995 422.2928160348839L976.0897717925833 449.2712328074763Q955.7960071758665 449.2712328074763 946.0837771377333 439.4390986947982Q936.3715470996 429.6369406007563 936.3715470996 409.1333438535861L936.3715470996 409.1333438535861L936.3715470996 355.8060066997619L928.397926142367 355.17651030840136L928.397926142367 348.9115224134327L966.7972060153569 348.9115224134327L966.7972060153569 400.50025048635655Q966.7972060153569 410.21248052448976 971.863153164877 415.48825980446344Q976.9590763330333 420.79401510307326 985.3523615511732 421.00384723352676L985.3523615511732 421.00384723352676L994.6449273283995 412.37075386629715L994.6449273283995 355.8060066997619L986.8811385016201 355.17651030840136L986.8811385016201 348.9115224134327L1025.0705862441564 348.9115224134327L1025.0705862441564 409.7628402449466Q1025.0705862441564 417.76643722081565 1026.0597948591515 421.63334362488723Q1027.0190274555102 425.530226047595 1029.1773007973177 428.3479717993991L1029.1773007973177 428.3479717993991L1035.65212082274 425.11056178668804ZM1192.9962426442257 439.1393385084361L1200.760031471005 439.76883489979656L1200.760031471005 446.0338227947652L1154.5669867525999 446.0338227947652L1154.5669867525999 439.76883489979656L1162.570583728469 439.1393385084361L1162.570583728469 393.57579018139114Q1162.570583728469 384.1033682923476 1157.7144687094024 378.7976129937378Q1152.8583536903357 373.5218337137642 1144.2252603231059 373.3120015833107L1144.2252603231059 373.3120015833107L1136.221663347237 381.28562254054356L1136.221663347237 384.9426968141616L1136.221663347237 439.1393385084361L1143.9854521740162 439.76883489979656L1143.9854521740162 446.0338227947652L1097.822383474247 446.0338227947652L1097.822383474247 439.76883489979656L1105.79600443148 439.1393385084361L1105.79600443148 393.57579018139114Q1105.79600443148 384.1033682923476 1100.9398894124133 378.9175170682827Q1096.0837743933466 373.7316658442177 1087.4506810261173 373.5218337137642L1087.4506810261173 373.5218337137642L1080.3163885906984 380.6261501305468L1079.4770600688844 439.1393385084361L1087.4506810261173 439.76883489979656L1087.4506810261173 446.0338227947652L1041.0478041772583 446.0338227947652L1041.0478041772583 439.76883489979656L1049.021425134491 439.1393385084361L1048.3919287431308 361.8611624642771L1040.1784996368083 363.80960367563097L1038.0202262950006 357.33478365020875L1072.132935503012 346.75324907162536L1079.6868921993378 370.9139200924136L1097.5825753251574 345.25444813981466Q1114.219265668256 345.25444813981466 1123.3919273709375 351.9391002956903Q1132.5645890736187 358.62375245156596 1135.142526676333 372.652529173314L1135.142526676333 372.652529173314L1154.3571546221463 345.0146399907249Q1174.2012789593198 345.0146399907249 1183.6137488110908 354.7268700288582Q1192.9962426442257 364.43910006699144 1192.9962426442257 384.9426968141616L1192.9962426442257 384.9426968141616L1192.9962426442257 439.1393385084361ZM1257.0849704884508 345.67411240072164Q1276.0897663038104 345.67411240072164 1286.9710610687562 359.3731529174713Q1297.8823318523378 373.072193434221 1297.6724997218844 396.39353593319527L1297.6724997218844 396.39353593319527L1238.1101506917275 398.34197714454916Q1239.6089516235384 411.08178506494 1246.9530761894107 417.76643722081565Q1254.297200755283 424.4510893766913 1266.377536265677 424.4510893766913L1266.377536265677 424.4510893766913Q1283.194082720593 424.4510893766913 1293.7756172991762 415.15852359946507L1293.7756172991762 415.15852359946507L1297.6724997218844 418.6357417612659Q1290.1185430255582 433.08418274392085 1277.2588310306228 441.1777077756986Q1264.4290950543232 449.2712328074763 1249.9806540716681 449.2712328074763L1249.9806540716681 449.2712328074763Q1230.3163858463117 449.2712328074763 1218.7756186713696 436.2016886820871Q1207.2348514964274 423.16212057533414 1207.2348514964274 400.91991474726353L1207.2348514964274 400.91991474726353Q1207.2348514964274 387.7604425659657 1212.5106307764008 374.81080251512134Q1217.8163860750105 361.8611624642771 1225.9998391626973 353.22806909704747L1225.9998391626973 353.22806909704747Q1231.6353306663054 349.9906590843364 1240.4782561639886 347.832385742529Q1249.3211816616717 345.67411240072164 1257.0849704884508 345.67411240072164L1257.0849704884508 345.67411240072164ZM1237.6605104121845 391.6573249886735L1265.7180638556802 389.25924349777637Q1265.5082317252268 374.15133010512466 1261.4015171720657 365.3084046074416Q1257.2948026189042 356.4654791097586 1249.7408459225785 354.7268700288582L1249.7408459225785 354.7268700288582Q1244.34516256806 360.36236153246637 1241.0178244994404 370.37435175696174Q1237.6605104121845 380.4163180000933 1237.6605104121845 390.9978525786768L1237.6605104121845 390.9978525786768L1237.6605104121845 391.6573249886735Z " fill="#ec8b5e" transform="matrix(0.6742821183652653,0,0,0.6742821183652653,0,47.6356009814522)"/></g></svg>